<svg width="24" height="20" viewBox="0 0 24 20" fill="none" xmlns="http://www.w3.org/2000/svg">
<path d="M4.25933 8.14665C3.98688 10.2307 3.82139 12.3483 3.76853 14.494C6.66451 15.703 9.41893 17.1835 12 18.9036C14.5811 17.1835 17.3355 15.703 20.2315 14.494C20.1786 12.3484 20.0131 10.2307 19.7407 8.14669M4.25933 8.14665C3.38362 7.8523 2.49729 7.58107 1.60107 7.3337C4.84646 5.05887 8.32741 3.0972 12 1.49255C15.6727 3.0972 19.1536 5.05888 22.399 7.33371C21.5028 7.58109 20.6164 7.85233 19.7407 8.14669M4.25933 8.14665C6.94656 9.0499 9.5338 10.1709 12.0001 11.4886C14.4663 10.1709 17.0535 9.04993 19.7407 8.14669M6.75 13C7.16421 13 7.5 12.6642 7.5 12.25C7.5 11.8358 7.16421 11.5 6.75 11.5C6.33579 11.5 6 11.8358 6 12.25C6 12.6642 6.33579 13 6.75 13ZM6.75 13V9.32447C8.44147 8.27349 10.1936 7.31094 12 6.44329M4.99264 17.9926C6.16421 16.8211 6.75 15.2855 6.75 13.75V12.25" stroke="#0F172A" stroke-width="1.5" stroke-linecap="round" stroke-linejoin="round"/>
</svg>
