<svg width="17" height="18" viewBox="0 0 17 18" fill="none" xmlns="http://www.w3.org/2000/svg">
<path fill-rule="evenodd" clip-rule="evenodd" d="M8.3335 0.766113C8.74771 0.766113 9.0835 1.1019 9.0835 1.51611V8.26611H15.8335C16.2477 8.26611 16.5835 8.6019 16.5835 9.01611C16.5835 9.43033 16.2477 9.76611 15.8335 9.76611H9.0835V16.5161C9.0835 16.9303 8.74771 17.2661 8.3335 17.2661C7.91928 17.2661 7.5835 16.9303 7.5835 16.5161V9.76611H0.833496C0.419282 9.76611 0.0834961 9.43033 0.0834961 9.01611C0.0834961 8.6019 0.419283 8.26611 0.833496 8.26611H7.5835V1.51611C7.5835 1.1019 7.91928 0.766113 8.3335 0.766113Z" fill="#0F172A"/>
</svg>
