<svg width="20" height="20" viewBox="0 0 20 20" fill="none" xmlns="http://www.w3.org/2000/svg">
<path d="M4.75 1.00464V3.25464M15.25 1.00464V3.25464M1 16.7546V5.50464C1 4.262 2.00736 3.25464 3.25 3.25464H16.75C17.9926 3.25464 19 4.262 19 5.50464V16.7546M1 16.7546C1 17.9973 2.00736 19.0046 3.25 19.0046H16.75C17.9926 19.0046 19 17.9973 19 16.7546M1 16.7546V9.25464C1 8.012 2.00736 7.00464 3.25 7.00464H16.75C17.9926 7.00464 19 8.012 19 9.25464V16.7546M10 10.7546H10.0075V10.7621H10V10.7546ZM10 13.0046H10.0075V13.0121H10V13.0046ZM10 15.2546H10.0075V15.2621H10V15.2546ZM7.75 13.0046H7.7575V13.0121H7.75V13.0046ZM7.75 15.2546H7.7575V15.2621H7.75V15.2546ZM5.5 13.0046H5.5075V13.0121H5.5V13.0046ZM5.5 15.2546H5.5075V15.2621H5.5V15.2546ZM12.25 10.7546H12.2575V10.7621H12.25V10.7546ZM12.25 13.0046H12.2575V13.0121H12.25V13.0046ZM12.25 15.2546H12.2575V15.2621H12.25V15.2546ZM14.5 10.7546H14.5075V10.7621H14.5V10.7546ZM14.5 13.0046H14.5075V13.0121H14.5V13.0046Z" stroke="#0F172A" stroke-width="1.5" stroke-linecap="round" stroke-linejoin="round"/>
</svg>
