<svg width="20" height="20" viewBox="0 0 20 20" fill="none" xmlns="http://www.w3.org/2000/svg">
<path fill-rule="evenodd" clip-rule="evenodd" d="M4.75 0.252319C5.16421 0.252319 5.5 0.588106 5.5 1.00232V2.50232H14.5V1.00232C14.5 0.588106 14.8358 0.252319 15.25 0.252319C15.6642 0.252319 16 0.588106 16 1.00232V2.50232H16.75C18.4069 2.50232 19.75 3.84547 19.75 5.50232V16.7523C19.75 18.4092 18.4069 19.7523 16.75 19.7523H3.25C1.59315 19.7523 0.25 18.4092 0.25 16.7523V5.50232C0.25 3.84547 1.59315 2.50232 3.25 2.50232H4V1.00232C4 0.588106 4.33579 0.252319 4.75 0.252319ZM18.25 9.25232C18.25 8.42389 17.5784 7.75232 16.75 7.75232H3.25C2.42157 7.75232 1.75 8.42389 1.75 9.25232V16.7523C1.75 17.5807 2.42157 18.2523 3.25 18.2523H16.75C17.5784 18.2523 18.25 17.5807 18.25 16.7523V9.25232Z" fill="#0F172A"/>
</svg>
