<svg width="22" height="18" viewBox="0 0 22 18" fill="none" xmlns="http://www.w3.org/2000/svg">
<path d="M5.82689 3.17954C5.46581 3.75817 4.86127 4.13862 4.186 4.23458C3.80655 4.2885 3.42853 4.34686 3.05199 4.40961C1.99912 4.58505 1.25 5.51127 1.25 6.57866V15.0046C1.25 16.2473 2.25736 17.2546 3.5 17.2546H18.5C19.7426 17.2546 20.75 16.2473 20.75 15.0046V6.57867C20.75 5.51127 20.0009 4.58506 18.948 4.40962C18.5715 4.34687 18.1934 4.28851 17.814 4.23459C17.1387 4.13862 16.5342 3.75818 16.1731 3.17954L15.3519 1.86353C14.9734 1.257 14.3294 0.863022 13.6155 0.824686C12.7496 0.778187 11.8775 0.754639 11 0.754639C10.1225 0.754639 9.25044 0.778187 8.3845 0.824686C7.6706 0.863022 7.02658 1.257 6.64809 1.86353L5.82689 3.17954Z" stroke="#0F172A" stroke-width="1.5" stroke-linecap="round" stroke-linejoin="round"/>
<path d="M15.5 9.75464C15.5 12.2399 13.4853 14.2546 11 14.2546C8.51472 14.2546 6.5 12.2399 6.5 9.75464C6.5 7.26936 8.51472 5.25464 11 5.25464C13.4853 5.25464 15.5 7.26936 15.5 9.75464Z" stroke="#0F172A" stroke-width="1.5" stroke-linecap="round" stroke-linejoin="round"/>
<path d="M17.75 7.50464H17.7575V7.51214H17.75V7.50464Z" stroke="#0F172A" stroke-width="1.5" stroke-linecap="round" stroke-linejoin="round"/>
</svg>
