<svg width="22" height="17" viewBox="0 0 22 17" fill="none" xmlns="http://www.w3.org/2000/svg">
<path d="M2.375 0.504639C1.33947 0.504639 0.5 1.3441 0.5 2.37964V9.50464H12.5V2.37964C12.5 1.3441 11.6605 0.504639 10.625 0.504639H2.375Z" fill="#0F172A"/>
<path d="M12.5 11.0046H0.5V13.6296C0.5 14.6652 1.33947 15.5046 2.375 15.5046H2.75C2.75 13.8478 4.09315 12.5046 5.75 12.5046C7.40685 12.5046 8.75 13.8478 8.75 15.5046H11.75C12.1642 15.5046 12.5 15.1689 12.5 14.7546V11.0046Z" fill="#0F172A"/>
<path d="M7.25 15.5046C7.25 14.6762 6.57843 14.0046 5.75 14.0046C4.92157 14.0046 4.25 14.6762 4.25 15.5046C4.25 16.3331 4.92157 17.0046 5.75 17.0046C6.57843 17.0046 7.25 16.3331 7.25 15.5046Z" fill="#0F172A"/>
<path d="M14.75 2.75464C14.3358 2.75464 14 3.09043 14 3.50464V14.7546C14 14.8414 14.0147 14.9248 14.0419 15.0023C14.2809 13.5846 15.5143 12.5046 17 12.5046C18.6442 12.5046 19.9794 13.8273 19.9998 15.4666C20.8531 15.2916 21.5224 14.5312 21.464 13.5841C21.231 9.80369 19.8775 6.32566 17.7324 3.47954C17.378 3.00927 16.8265 2.75464 16.2621 2.75464H14.75Z" fill="#0F172A"/>
<path d="M18.5 15.5046C18.5 14.6762 17.8284 14.0046 17 14.0046C16.1716 14.0046 15.5 14.6762 15.5 15.5046C15.5 16.3331 16.1716 17.0046 17 17.0046C17.8284 17.0046 18.5 16.3331 18.5 15.5046Z" fill="#0F172A"/>
</svg>
