<svg width="22" height="17" viewBox="0 0 22 17" fill="none" xmlns="http://www.w3.org/2000/svg">
<path d="M7.25 14.7546C7.25 15.5831 6.57843 16.2546 5.75 16.2546C4.92157 16.2546 4.25 15.5831 4.25 14.7546M7.25 14.7546C7.25 13.9262 6.57843 13.2546 5.75 13.2546C4.92157 13.2546 4.25 13.9262 4.25 14.7546M7.25 14.7546H13.25M4.25 14.7546H2.375C1.75368 14.7546 1.25 14.251 1.25 13.6296V10.2551M18.5 14.7546C18.5 15.5831 17.8284 16.2546 17 16.2546C16.1716 16.2546 15.5 15.5831 15.5 14.7546M18.5 14.7546C18.5 13.9262 17.8284 13.2546 17 13.2546C16.1716 13.2546 15.5 13.9262 15.5 14.7546M18.5 14.7546L19.625 14.7546C20.2463 14.7546 20.7537 14.2503 20.7154 13.6302C20.5054 10.2226 19.3473 7.07152 17.5016 4.43748C17.1394 3.92055 16.5529 3.61238 15.9227 3.57779H13.25M15.5 14.7546H13.25M13.25 3.57779V2.61943C13.25 2.05194 12.8275 1.57185 12.263 1.51327C10.6153 1.34228 8.94291 1.25464 7.25 1.25464C5.55709 1.25464 3.88466 1.34228 2.23698 1.51327C1.67252 1.57185 1.25 2.05194 1.25 2.61943V10.2551M13.25 3.57779V10.2551M13.25 14.7546V10.2551M13.25 10.2551H1.25" stroke="#0F172A" stroke-width="1.5" stroke-linecap="round" stroke-linejoin="round"/>
</svg>
