<svg width="20" height="20" viewBox="0 0 20 20" fill="none" xmlns="http://www.w3.org/2000/svg">
<path d="M1 11.1296C1 10.5083 1.50368 10.0046 2.125 10.0046H4.375C4.99632 10.0046 5.5 10.5083 5.5 11.1296V17.8796C5.5 18.501 4.99632 19.0046 4.375 19.0046H2.125C1.50368 19.0046 1 18.501 1 17.8796V11.1296Z" stroke="#0F172A" stroke-width="1.5" stroke-linecap="round" stroke-linejoin="round"/>
<path d="M7.75 6.62964C7.75 6.00832 8.25368 5.50464 8.875 5.50464H11.125C11.7463 5.50464 12.25 6.00832 12.25 6.62964V17.8796C12.25 18.501 11.7463 19.0046 11.125 19.0046H8.875C8.25368 19.0046 7.75 18.501 7.75 17.8796V6.62964Z" stroke="#0F172A" stroke-width="1.5" stroke-linecap="round" stroke-linejoin="round"/>
<path d="M14.5 2.12964C14.5 1.50832 15.0037 1.00464 15.625 1.00464H17.875C18.4963 1.00464 19 1.50832 19 2.12964V17.8796C19 18.501 18.4963 19.0046 17.875 19.0046H15.625C15.0037 19.0046 14.5 18.501 14.5 17.8796V2.12964Z" stroke="#0F172A" stroke-width="1.5" stroke-linecap="round" stroke-linejoin="round"/>
</svg>
