<svg width="18" height="20" viewBox="0 0 18 20" fill="none" xmlns="http://www.w3.org/2000/svg">
<path d="M15.375 0.254639C14.3395 0.254639 13.5 1.0941 13.5 2.12964V17.8796C13.5 18.9152 14.3395 19.7546 15.375 19.7546H16.125C17.1605 19.7546 18 18.9152 18 17.8796V2.12964C18 1.0941 17.1605 0.254639 16.125 0.254639H15.375Z" fill="#0F172A"/>
<path d="M6.75 6.62964C6.75 5.5941 7.58947 4.75464 8.625 4.75464H9.375C10.4105 4.75464 11.25 5.5941 11.25 6.62964V17.8796C11.25 18.9152 10.4105 19.7546 9.375 19.7546H8.625C7.58947 19.7546 6.75 18.9152 6.75 17.8796V6.62964Z" fill="#0F172A"/>
<path d="M0 11.1296C0 10.0941 0.839466 9.25464 1.875 9.25464H2.625C3.66053 9.25464 4.5 10.0941 4.5 11.1296V17.8796C4.5 18.9152 3.66053 19.7546 2.625 19.7546H1.875C0.839466 19.7546 0 18.9152 0 17.8796V11.1296Z" fill="#0F172A"/>
</svg>
