<svg width="14" height="14" viewBox="0 0 14 14" fill="none" xmlns="http://www.w3.org/2000/svg">
<path fill-rule="evenodd" clip-rule="evenodd" d="M0.46967 0.476506C0.762563 0.183613 1.23744 0.183613 1.53033 0.476506L7 5.94618L12.4697 0.476507C12.7626 0.183613 13.2374 0.183613 13.5303 0.476507C13.8232 0.7694 13.8232 1.24427 13.5303 1.53717L8.06066 7.00684L13.5303 12.4765C13.8232 12.7694 13.8232 13.2443 13.5303 13.5372C13.2374 13.8301 12.7626 13.8301 12.4697 13.5372L7 8.0675L1.53033 13.5372C1.23744 13.8301 0.762563 13.8301 0.46967 13.5372C0.176777 13.2443 0.176777 12.7694 0.46967 12.4765L5.93934 7.00684L0.46967 1.53717C0.176777 1.24427 0.176777 0.769399 0.46967 0.476506Z" fill="#0F172A"/>
</svg>
