<svg width="18" height="22" viewBox="0 0 18 22" fill="none" xmlns="http://www.w3.org/2000/svg">
<path d="M16.5 13.2523V10.6273C16.5 8.76336 14.989 7.25232 13.125 7.25232H11.625C11.0037 7.25232 10.5 6.74864 10.5 6.12732V4.62732C10.5 2.76336 8.98896 1.25232 7.125 1.25232H5.25M6 15.5023V16.2523M9 13.2523V16.2523M12 11.0023V16.2523M7.5 1.25232H2.625C2.00368 1.25232 1.5 1.756 1.5 2.37732V19.6273C1.5 20.2486 2.00368 20.7523 2.625 20.7523H15.375C15.9963 20.7523 16.5 20.2486 16.5 19.6273V10.2523C16.5 5.28176 12.4706 1.25232 7.5 1.25232Z" stroke="#0F172A" stroke-width="1.5" stroke-linecap="round" stroke-linejoin="round"/>
</svg>
