<svg width="18" height="22" viewBox="0 0 18 22" fill="none" xmlns="http://www.w3.org/2000/svg">
<path d="M11.7404 8.00464L11.3942 17.0046M6.60577 17.0046L6.25962 8.00464M16.2276 4.79521C16.5696 4.84685 16.9104 4.90211 17.25 4.96093M16.2276 4.79521L15.1598 18.6772C15.0696 19.8494 14.0921 20.7546 12.9164 20.7546H5.08357C3.90786 20.7546 2.93037 19.8494 2.8402 18.6772L1.77235 4.79521M16.2276 4.79521C15.0812 4.62208 13.9215 4.48949 12.75 4.39896M0.75 4.96093C1.08957 4.90211 1.43037 4.84685 1.77235 4.79521M1.77235 4.79521C2.91878 4.62208 4.07849 4.48949 5.25 4.39896M12.75 4.39896V3.48283C12.75 2.30346 11.8393 1.31887 10.6606 1.28116C10.1092 1.26352 9.55565 1.25464 9 1.25464C8.44435 1.25464 7.89078 1.26352 7.33942 1.28116C6.16065 1.31887 5.25 2.30346 5.25 3.48283V4.39896M12.75 4.39896C11.5126 4.30334 10.262 4.25464 9 4.25464C7.73803 4.25464 6.48744 4.30334 5.25 4.39896" stroke="#0F172A" stroke-width="1.5" stroke-linecap="round" stroke-linejoin="round"/>
</svg>
