<svg width="20" height="20" viewBox="0 0 20 20" fill="none" xmlns="http://www.w3.org/2000/svg">
<path fill-rule="evenodd" clip-rule="evenodd" d="M10 0.25C10.4142 0.25 10.75 0.585786 10.75 1V12.6893L13.9697 9.46967C14.2626 9.17678 14.7374 9.17678 15.0303 9.46967C15.3232 9.76256 15.3232 10.2374 15.0303 10.5303L10.5303 15.0303C10.2374 15.3232 9.76256 15.3232 9.46967 15.0303L4.96967 10.5303C4.67678 10.2374 4.67678 9.76256 4.96967 9.46967C5.26256 9.17678 5.73744 9.17678 6.03033 9.46967L9.25 12.6893V1C9.25 0.585786 9.58579 0.25 10 0.25ZM1 13.75C1.41421 13.75 1.75 14.0858 1.75 14.5V16.75C1.75 17.5784 2.42157 18.25 3.25 18.25H16.75C17.5784 18.25 18.25 17.5784 18.25 16.75V14.5C18.25 14.0858 18.5858 13.75 19 13.75C19.4142 13.75 19.75 14.0858 19.75 14.5V16.75C19.75 18.4069 18.4069 19.75 16.75 19.75H3.25C1.59315 19.75 0.25 18.4069 0.25 16.75V14.5C0.25 14.0858 0.585786 13.75 1 13.75Z" fill="#0F172A"/>
</svg>
