<svg width="21" height="21" viewBox="0 0 21 21" fill="none" xmlns="http://www.w3.org/2000/svg">
<path d="M15.1952 3.50059L16.8827 1.81309C17.6149 1.08086 18.8021 1.08086 19.5343 1.81309C20.2666 2.54532 20.2666 3.73251 19.5343 4.46474L8.91568 15.0834C8.387 15.6121 7.73493 16.0007 7.01839 16.2141L4.3335 17.0139L5.13328 14.329C5.34672 13.6125 5.73534 12.9604 6.26402 12.4317L15.1952 3.50059ZM15.1952 3.50059L17.8335 6.13891M16.3335 13.0139V17.7639C16.3335 19.0065 15.3261 20.0139 14.0835 20.0139H3.5835C2.34086 20.0139 1.3335 19.0065 1.3335 17.7639V7.26391C1.3335 6.02127 2.34086 5.01391 3.5835 5.01391H8.3335" stroke="#0F172A" stroke-width="1.5" stroke-linecap="round" stroke-linejoin="round"/>
</svg>
