<svg width="18" height="18" viewBox="0 0 18 18" fill="none" xmlns="http://www.w3.org/2000/svg">
<path d="M15.75 9.75002L17.25 9.75C17.6642 9.75 18 9.41421 18 8.99999C18 8.58578 17.6642 8.25 17.25 8.25L15.75 8.25002C15.3358 8.25002 15 8.58581 15 9.00002C15 9.41424 15.3358 9.75002 15.75 9.75002Z" fill="#0F172A"/>
<path d="M9 3C9 2.58579 9.33579 2.25 9.75 2.25L17.25 2.25002C17.6642 2.25002 18 2.5858 18 3.00002C18 3.41423 17.6642 3.75002 17.25 3.75002L9.75 3.75C9.33578 3.75 9 3.41421 9 3Z" fill="#0F172A"/>
<path d="M9 15C9 14.5858 9.33579 14.25 9.75 14.25L17.25 14.25C17.6642 14.25 18 14.5858 18 15C18 15.4142 17.6642 15.75 17.25 15.75L9.75 15.75C9.33578 15.75 9 15.4142 9 15Z" fill="#0F172A"/>
<path d="M0.750008 3.75001L2.25001 3.75C2.66422 3.75 3 3.41421 3 2.99999C3 2.58578 2.66421 2.25 2.24999 2.25L0.749993 2.25001C0.33578 2.25002 -3.74885e-06 2.58581 5.24577e-07 3.00002C4.79801e-06 3.41424 0.335795 3.75002 0.750008 3.75001Z" fill="#0F172A"/>
<path d="M2.25001 15.75L0.750007 15.75C0.335794 15.75 4.27347e-06 15.4142 0 15C-4.27339e-06 14.5858 0.33578 14.25 0.749993 14.25L2.24999 14.25C2.66421 14.25 3 14.5858 3 15C3 15.4142 2.66422 15.75 2.25001 15.75Z" fill="#0F172A"/>
<path d="M2.6231e-07 9C2.80415e-07 8.58579 0.335787 8.25 0.75 8.25H8.25C8.66421 8.25 9 8.58579 9 9C9 9.41421 8.66421 9.75 8.25 9.75H0.75C0.335787 9.75 2.44204e-07 9.41421 2.6231e-07 9Z" fill="#0F172A"/>
<path d="M6 0.75C4.75736 0.75 3.75 1.75736 3.75 3C3.75 4.24264 4.75736 5.25 6 5.25C7.24264 5.25 8.25 4.24264 8.25 3C8.25 1.75736 7.24264 0.75 6 0.75Z" fill="#0F172A"/>
<path d="M9.75 9C9.75 7.75736 10.7574 6.75 12 6.75C13.2426 6.75 14.25 7.75736 14.25 9C14.25 10.2426 13.2426 11.25 12 11.25C10.7574 11.25 9.75 10.2426 9.75 9Z" fill="#0F172A"/>
<path d="M6 12.75C4.75736 12.75 3.75 13.7574 3.75 15C3.75 16.2426 4.75736 17.25 6 17.25C7.24264 17.25 8.25 16.2426 8.25 15C8.25 13.7574 7.24264 12.75 6 12.75Z" fill="#0F172A"/>
</svg>
