<svg width="22" height="20" viewBox="0 0 22 20" fill="none" xmlns="http://www.w3.org/2000/svg">
<path d="M10.4697 1.84792C10.7626 1.55503 11.2374 1.55503 11.5303 1.84792L20.2197 10.5373C20.5126 10.8302 20.9874 10.8302 21.2803 10.5373C21.5732 10.2444 21.5732 9.76949 21.2803 9.4766L12.591 0.787259C11.7123 -0.0914208 10.2877 -0.0914187 9.40901 0.78726L0.71967 9.4766C0.426777 9.76949 0.426777 10.2444 0.71967 10.5373C1.01256 10.8302 1.48744 10.8302 1.78033 10.5373L10.4697 1.84792Z" fill="#0F172A"/>
<path d="M11 3.43891L19.159 11.5979C19.1887 11.6276 19.2191 11.6564 19.25 11.6841V17.8819C19.25 18.9175 18.4105 19.7569 17.375 19.7569H14C13.5858 19.7569 13.25 19.4211 13.25 19.0069V14.5069C13.25 14.0927 12.9142 13.7569 12.5 13.7569H9.5C9.08579 13.7569 8.75 14.0927 8.75 14.5069V19.0069C8.75 19.4211 8.41421 19.7569 8 19.7569H4.625C3.58947 19.7569 2.75 18.9175 2.75 17.8819V11.6841C2.78093 11.6564 2.81127 11.6276 2.84099 11.5979L11 3.43891Z" fill="#0F172A"/>
</svg>
