<svg width="18" height="22" viewBox="0 0 18 22" fill="none" xmlns="http://www.w3.org/2000/svg">
<path fill-rule="evenodd" clip-rule="evenodd" d="M2.625 0.502319C1.58947 0.502319 0.75 1.34178 0.75 2.37732V19.6273C0.75 20.6629 1.58947 21.5023 2.625 21.5023H15.375C16.4105 21.5023 17.25 20.6629 17.25 19.6273V11.7523C17.25 9.68125 15.5711 8.00232 13.5 8.00232H11.625C10.5895 8.00232 9.75 7.16285 9.75 6.12732V4.25232C9.75 2.18125 8.07107 0.502319 6 0.502319H2.625ZM4.5 14.0023C4.5 13.5881 4.83579 13.2523 5.25 13.2523H12.75C13.1642 13.2523 13.5 13.5881 13.5 14.0023C13.5 14.4165 13.1642 14.7523 12.75 14.7523H5.25C4.83579 14.7523 4.5 14.4165 4.5 14.0023ZM5.25 16.2523C4.83579 16.2523 4.5 16.5881 4.5 17.0023C4.5 17.4165 4.83579 17.7523 5.25 17.7523H9C9.41421 17.7523 9.75 17.4165 9.75 17.0023C9.75 16.5881 9.41421 16.2523 9 16.2523H5.25Z" fill="#0F172A"/>
<path d="M9.97119 0.818224C10.768 1.7388 11.25 2.93927 11.25 4.25232V6.12732C11.25 6.33443 11.4179 6.50232 11.625 6.50232H13.5C14.8131 6.50232 16.0135 6.98436 16.9341 7.78113C16.0462 4.3822 13.3701 1.70609 9.97119 0.818224Z" fill="#0F172A"/>
</svg>
