<svg width="18" height="22" viewBox="0 0 18 22" fill="none" xmlns="http://www.w3.org/2000/svg">
<path fill-rule="evenodd" clip-rule="evenodd" d="M2.625 0.502319H6C8.07107 0.502319 9.75 2.18125 9.75 4.25232V6.12732C9.75 7.16285 10.5895 8.00232 11.625 8.00232H13.5C15.5711 8.00232 17.25 9.68125 17.25 11.7523V19.6273C17.25 20.6629 16.4105 21.5023 15.375 21.5023H2.625C1.58947 21.5023 0.75 20.6629 0.75 19.6273V2.37732C0.75 1.34178 1.58947 0.502319 2.625 0.502319ZM6.75 13.2523C6.33579 13.2523 6 13.5881 6 14.0023C6 14.4165 6.33579 14.7523 6.75 14.7523H12C12.4142 14.7523 12.75 14.4165 12.75 14.0023C12.75 13.5881 12.4142 13.2523 12 13.2523H6.75Z" fill="#0F172A"/>
<path d="M11.25 4.25232C11.25 2.93927 10.768 1.7388 9.97119 0.818224C13.3701 1.70609 16.0462 4.3822 16.9341 7.78113C16.0135 6.98436 14.8131 6.50232 13.5 6.50232H11.625C11.4179 6.50232 11.25 6.33443 11.25 6.12732V4.25232Z" fill="#0F172A"/>
</svg>
