<svg width="18" height="22" viewBox="0 0 18 22" fill="none" xmlns="http://www.w3.org/2000/svg">
<path fill-rule="evenodd" clip-rule="evenodd" d="M8.09738 0.521492C8.50355 0.602726 8.76696 0.997844 8.68573 1.40401L7.66515 6.50693H12.1351L13.2146 1.10984C13.2958 0.70367 13.6909 0.440258 14.0971 0.521492C14.5033 0.602726 14.7667 0.997844 14.6854 1.40401L13.6649 6.50693H17.25C17.6642 6.50693 18 6.84271 18 7.25693C18 7.67114 17.6642 8.00693 17.25 8.00693H13.3649L12.1649 14.0069H15.75C16.1642 14.0069 16.5 14.3427 16.5 14.7569C16.5 15.1711 16.1642 15.5069 15.75 15.5069H11.8649L10.7854 20.904C10.7042 21.3102 10.3091 21.5736 9.90291 21.4924C9.49674 21.4111 9.23333 21.016 9.31456 20.6098L10.3351 15.5069H5.86515L4.78573 20.904C4.70449 21.3102 4.30938 21.5736 3.90321 21.4924C3.49704 21.4111 3.23362 21.016 3.31486 20.6098L4.33544 15.5069H0.75C0.335786 15.5069 0 15.1711 0 14.7569C0 14.3427 0.335786 14.0069 0.75 14.0069H4.63544L5.83544 8.00693H2.25C1.83579 8.00693 1.5 7.67114 1.5 7.25693C1.5 6.84271 1.83579 6.50693 2.25 6.50693H6.13544L7.21486 1.10984C7.29609 0.70367 7.69121 0.440258 8.09738 0.521492ZM7.36515 8.00693L6.16515 14.0069H10.6351L11.8351 8.00693H7.36515Z" fill="#0F172A"/>
</svg>
