<svg width="4" height="16" viewBox="0 0 4 16" fill="none" xmlns="http://www.w3.org/2000/svg">
<path fill-rule="evenodd" clip-rule="evenodd" d="M0.5 2.00232C0.5 1.17389 1.17157 0.502319 2 0.502319C2.82843 0.502319 3.5 1.17389 3.5 2.00232C3.5 2.83075 2.82843 3.50232 2 3.50232C1.17157 3.50232 0.5 2.83075 0.5 2.00232ZM0.5 8.00232C0.5 7.17389 1.17157 6.50232 2 6.50232C2.82843 6.50232 3.5 7.17389 3.5 8.00232C3.5 8.83075 2.82843 9.50232 2 9.50232C1.17157 9.50232 0.5 8.83075 0.5 8.00232ZM0.5 14.0023C0.5 13.1739 1.17157 12.5023 2 12.5023C2.82843 12.5023 3.5 13.1739 3.5 14.0023C3.5 14.8307 2.82843 15.5023 2 15.5023C1.17157 15.5023 0.5 14.8307 0.5 14.0023Z" fill="#0F172A"/>
</svg>
