<svg width="18" height="18" viewBox="0 0 18 18" fill="none" xmlns="http://www.w3.org/2000/svg">
<path d="M0.75 3.00232C0.75 1.75968 1.75736 0.752319 3 0.752319H5.25C6.49264 0.752319 7.5 1.75968 7.5 3.00232V5.25232C7.5 6.49496 6.49264 7.50232 5.25 7.50232H3C1.75736 7.50232 0.75 6.49496 0.75 5.25232V3.00232Z" stroke="#0F172A" stroke-width="1.5" stroke-linecap="round" stroke-linejoin="round"/>
<path d="M0.75 12.7523C0.75 11.5097 1.75736 10.5023 3 10.5023H5.25C6.49264 10.5023 7.5 11.5097 7.5 12.7523V15.0023C7.5 16.245 6.49264 17.2523 5.25 17.2523H3C1.75736 17.2523 0.75 16.245 0.75 15.0023V12.7523Z" stroke="#0F172A" stroke-width="1.5" stroke-linecap="round" stroke-linejoin="round"/>
<path d="M10.5 3.00232C10.5 1.75968 11.5074 0.752319 12.75 0.752319H15C16.2426 0.752319 17.25 1.75968 17.25 3.00232V5.25232C17.25 6.49496 16.2426 7.50232 15 7.50232H12.75C11.5074 7.50232 10.5 6.49496 10.5 5.25232V3.00232Z" stroke="#0F172A" stroke-width="1.5" stroke-linecap="round" stroke-linejoin="round"/>
<path d="M10.5 12.7523C10.5 11.5097 11.5074 10.5023 12.75 10.5023H15C16.2426 10.5023 17.25 11.5097 17.25 12.7523V15.0023C17.25 16.245 16.2426 17.2523 15 17.2523H12.75C11.5074 17.2523 10.5 16.245 10.5 15.0023V12.7523Z" stroke="#0F172A" stroke-width="1.5" stroke-linecap="round" stroke-linejoin="round"/>
</svg>
