<svg width="21" height="21" viewBox="0 0 21 21" fill="none" xmlns="http://www.w3.org/2000/svg">
<path d="M14.8617 3.50059L16.5492 1.81309C17.2814 1.08086 18.4686 1.08086 19.2008 1.81309C19.9331 2.54532 19.9331 3.73251 19.2008 4.46474L8.58218 15.0834C8.05351 15.6121 7.40144 16.0007 6.68489 16.2141L4 17.0139L4.79978 14.329C5.01323 13.6125 5.40185 12.9604 5.93052 12.4317L14.8617 3.50059ZM14.8617 3.50059L17.5 6.13891M16 13.0139V17.7639C16 19.0065 14.9926 20.0139 13.75 20.0139H3.25C2.00736 20.0139 1 19.0065 1 17.7639V7.26391C1 6.02127 2.00736 5.01391 3.25 5.01391H8" stroke="#0F172A" stroke-width="1.5" stroke-linecap="round" stroke-linejoin="round"/>
</svg>
