<svg width="22" height="18" viewBox="0 0 22 18" fill="none" xmlns="http://www.w3.org/2000/svg">
<path d="M14 6.00696H17.75M14 9.00696H17.75M14 12.007H17.75M3.5 16.507H18.5C19.7426 16.507 20.75 15.4996 20.75 14.257V3.75696C20.75 2.51432 19.7426 1.50696 18.5 1.50696H3.5C2.25736 1.50696 1.25 2.51432 1.25 3.75696V14.257C1.25 15.4996 2.25736 16.507 3.5 16.507ZM9.5 6.38196C9.5 7.41749 8.66053 8.25696 7.625 8.25696C6.58947 8.25696 5.75 7.41749 5.75 6.38196C5.75 5.34642 6.58947 4.50696 7.625 4.50696C8.66053 4.50696 9.5 5.34642 9.5 6.38196ZM10.7939 12.7183C9.84894 13.2217 8.77021 13.507 7.62484 13.507C6.47948 13.507 5.40074 13.2217 4.45581 12.7183C4.92986 11.4277 6.16983 10.507 7.62484 10.507C9.07986 10.507 10.3198 11.4277 10.7939 12.7183Z" stroke="#0F172A" stroke-width="1.5" stroke-linecap="round" stroke-linejoin="round"/>
</svg>
