<svg width="18" height="19" viewBox="0 0 18 19" fill="none" xmlns="http://www.w3.org/2000/svg">
<path fill-rule="evenodd" clip-rule="evenodd" d="M0 1.89111C0 0.85558 0.839466 0.0161133 1.875 0.0161133H6.375C7.41053 0.0161133 8.25 0.855579 8.25 1.89111V6.39111C8.25 7.42665 7.41053 8.26611 6.375 8.26611H1.875C0.839466 8.26611 0 7.42665 0 6.39111V1.89111ZM1.875 1.51611C1.66789 1.51611 1.5 1.68401 1.5 1.89111V6.39111C1.5 6.59822 1.66789 6.76611 1.875 6.76611H6.375C6.58211 6.76611 6.75 6.59822 6.75 6.39111V1.89111C6.75 1.68401 6.58211 1.51611 6.375 1.51611H1.875ZM9.75 1.89111C9.75 0.85558 10.5895 0.0161133 11.625 0.0161133H16.125C17.1605 0.0161133 18 0.855579 18 1.89111V6.39111C18 7.42665 17.1605 8.26611 16.125 8.26611H11.625C10.5895 8.26611 9.75 7.42665 9.75 6.39111V1.89111ZM11.625 1.51611C11.4179 1.51611 11.25 1.68401 11.25 1.89111V6.39111C11.25 6.59822 11.4179 6.76611 11.625 6.76611H16.125C16.3321 6.76611 16.5 6.59822 16.5 6.39111V1.89111C16.5 1.68401 16.3321 1.51611 16.125 1.51611H11.625ZM3 3.76611C3 3.3519 3.33579 3.01611 3.75 3.01611H4.5C4.91421 3.01611 5.25 3.3519 5.25 3.76611V4.51611C5.25 4.93033 4.91421 5.26611 4.5 5.26611H3.75C3.33579 5.26611 3 4.93033 3 4.51611V3.76611ZM12.75 3.76611C12.75 3.3519 13.0858 3.01611 13.5 3.01611H14.25C14.6642 3.01611 15 3.3519 15 3.76611V4.51611C15 4.93033 14.6642 5.26611 14.25 5.26611H13.5C13.0858 5.26611 12.75 4.93033 12.75 4.51611V3.76611ZM0 11.6411C0 10.6056 0.839466 9.76611 1.875 9.76611H6.375C7.41053 9.76611 8.25 10.6056 8.25 11.6411V16.1411C8.25 17.1766 7.41053 18.0161 6.375 18.0161H1.875C0.839466 18.0161 0 17.1766 0 16.1411V11.6411ZM1.875 11.2661C1.66789 11.2661 1.5 11.434 1.5 11.6411V16.1411C1.5 16.3482 1.66789 16.5161 1.875 16.5161H6.375C6.58211 16.5161 6.75 16.3482 6.75 16.1411V11.6411C6.75 11.434 6.58211 11.2661 6.375 11.2661H1.875ZM9.75 10.5161C9.75 10.1019 10.0858 9.76611 10.5 9.76611H11.25C11.6642 9.76611 12 10.1019 12 10.5161V11.2661C12 11.6803 11.6642 12.0161 11.25 12.0161H10.5C10.0858 12.0161 9.75 11.6803 9.75 11.2661V10.5161ZM15.75 10.5161C15.75 10.1019 16.0858 9.76611 16.5 9.76611H17.25C17.6642 9.76611 18 10.1019 18 10.5161V11.2661C18 11.6803 17.6642 12.0161 17.25 12.0161H16.5C16.0858 12.0161 15.75 11.6803 15.75 11.2661V10.5161ZM3 13.5161C3 13.1019 3.33579 12.7661 3.75 12.7661H4.5C4.91421 12.7661 5.25 13.1019 5.25 13.5161V14.2661C5.25 14.6803 4.91421 15.0161 4.5 15.0161H3.75C3.33579 15.0161 3 14.6803 3 14.2661V13.5161ZM12.75 13.5161C12.75 13.1019 13.0858 12.7661 13.5 12.7661H14.25C14.6642 12.7661 15 13.1019 15 13.5161V14.2661C15 14.6803 14.6642 15.0161 14.25 15.0161H13.5C13.0858 15.0161 12.75 14.6803 12.75 14.2661V13.5161ZM9.75 16.5161C9.75 16.1019 10.0858 15.7661 10.5 15.7661H11.25C11.6642 15.7661 12 16.1019 12 16.5161V17.2661C12 17.6803 11.6642 18.0161 11.25 18.0161H10.5C10.0858 18.0161 9.75 17.6803 9.75 17.2661V16.5161ZM15.75 16.5161C15.75 16.1019 16.0858 15.7661 16.5 15.7661H17.25C17.6642 15.7661 18 16.1019 18 16.5161V17.2661C18 17.6803 17.6642 18.0161 17.25 18.0161H16.5C16.0858 18.0161 15.75 17.6803 15.75 17.2661V16.5161Z" fill="#0F172A"/>
</svg>
