<svg width="22" height="22" viewBox="0 0 22 22" fill="none" xmlns="http://www.w3.org/2000/svg">
<path d="M10.6444 0.591966C10.8664 0.472437 11.1336 0.472437 11.3556 0.591966L21.1056 5.84197C21.3485 5.97278 21.5 6.22641 21.5 6.50232C21.5 6.77823 21.3485 7.03186 21.1056 7.16267L11.3556 12.4127C11.1336 12.5322 10.8664 12.5322 10.6444 12.4127L0.894425 7.16267C0.651493 7.03186 0.5 6.77823 0.5 6.50232C0.5 6.22641 0.651493 5.97278 0.894425 5.84197L10.6444 0.591966Z" fill="#0F172A"/>
<path d="M2.26468 9.60413L9.93328 13.7334C10.5992 14.092 11.4008 14.092 12.0667 13.7334L19.7353 9.60413L21.1056 10.342C21.3485 10.4728 21.5 10.7264 21.5 11.0023C21.5 11.2782 21.3485 11.5319 21.1056 11.6627L11.3556 16.9127C11.1336 17.0322 10.8664 17.0322 10.6444 16.9127L0.894425 11.6627C0.651493 11.5319 0.5 11.2782 0.5 11.0023C0.5 10.7264 0.651493 10.4728 0.894425 10.342L2.26468 9.60413Z" fill="#0F172A"/>
<path d="M9.93328 18.2334L2.26468 14.1041L0.894425 14.842C0.651493 14.9728 0.5 15.2264 0.5 15.5023C0.5 15.7782 0.651493 16.0319 0.894425 16.1627L10.6444 21.4127C10.8664 21.5322 11.1336 21.5322 11.3556 21.4127L21.1056 16.1627C21.3485 16.0319 21.5 15.7782 21.5 15.5023C21.5 15.2264 21.3485 14.9728 21.1056 14.842L19.7353 14.1041L12.0667 18.2334C11.4008 18.592 10.5992 18.592 9.93328 18.2334Z" fill="#0F172A"/>
</svg>
