<svg width="20" height="18" viewBox="0 0 20 18" fill="none" xmlns="http://www.w3.org/2000/svg">
<path d="M9.25 1.53518C7.73455 0.56511 5.93246 0.00231934 4 0.00231934C2.86178 0.00231934 1.76756 0.197674 0.750065 0.557307C0.450372 0.663233 0.25 0.946574 0.25 1.26444V15.5144C0.25 15.7579 0.368178 15.9862 0.566959 16.1268C0.76574 16.2674 1.02039 16.3027 1.24993 16.2216C2.10911 15.9179 3.03441 15.7523 4 15.7523C5.99502 15.7523 7.82325 16.4596 9.25 17.638V1.53518Z" fill="#0F172A"/>
<path d="M10.75 17.638C12.1768 16.4596 14.005 15.7523 16 15.7523C16.9656 15.7523 17.8909 15.9179 18.7501 16.2216C18.9796 16.3027 19.2343 16.2674 19.433 16.1268C19.6318 15.9862 19.75 15.7579 19.75 15.5144V1.26444C19.75 0.946574 19.5496 0.663233 19.2499 0.557307C18.2324 0.197674 17.1382 0.00231934 16 0.00231934C14.0675 0.00231934 12.2655 0.565111 10.75 1.53518V17.638Z" fill="#0F172A"/>
</svg>
