<svg width="22" height="22" viewBox="0 0 22 22" fill="none" xmlns="http://www.w3.org/2000/svg">
<path d="M14.5904 13.3696C14.6948 13.8128 14.75 14.275 14.75 14.75C14.75 18.0637 12.0637 20.75 8.75 20.75V15.9503M14.5904 13.3696C18.3244 10.6411 20.75 6.22874 20.75 1.25C15.7715 1.25021 11.3595 3.67586 8.63122 7.40975M14.5904 13.3696C12.8819 14.6181 10.8994 15.514 8.75 15.9503M8.63122 7.40975C8.18777 7.30528 7.72534 7.25 7.25 7.25C3.93629 7.25 1.25 9.93629 1.25 13.25H6.05072M8.63122 7.40975C7.38285 9.11827 6.48701 11.1007 6.05072 13.25M8.75 15.9503C8.64659 15.9713 8.54279 15.9912 8.43862 16.0101C7.53171 15.291 6.70991 14.4692 5.99079 13.5623C6.00969 13.4578 6.02967 13.3537 6.05072 13.25M3.81191 15.6408C2.71213 16.4612 2 17.7724 2 19.25C2 19.4869 2.0183 19.7195 2.05356 19.9464C2.28054 19.9817 2.51313 20 2.75 20C4.22758 20 5.53883 19.2879 6.35925 18.1881M15.5 8C15.5 8.82843 14.8284 9.5 14 9.5C13.1716 9.5 12.5 8.82843 12.5 8C12.5 7.17157 13.1716 6.5 14 6.5C14.8284 6.5 15.5 7.17157 15.5 8Z" stroke="#0F172A" stroke-width="1.5" stroke-linecap="round" stroke-linejoin="round"/>
</svg>
