<svg width="17" height="17" viewBox="0 0 17 17" fill="none" xmlns="http://www.w3.org/2000/svg">
<path fill-rule="evenodd" clip-rule="evenodd" d="M10.2989 11.0377C9.46927 11.6498 8.44363 12.0116 7.3335 12.0116C4.57207 12.0116 2.3335 9.77302 2.3335 7.0116C2.3335 4.25017 4.57207 2.0116 7.3335 2.0116C10.0949 2.0116 12.3335 4.25017 12.3335 7.0116C12.3335 8.12174 11.9717 9.14737 11.3596 9.97703L14.1138 12.7313C14.4067 13.0242 14.4067 13.499 14.1138 13.7919C13.8209 14.0848 13.3461 14.0848 13.0532 13.7919L10.2989 11.0377ZM10.8335 7.0116C10.8335 8.94459 9.26649 10.5116 7.3335 10.5116C5.4005 10.5116 3.8335 8.94459 3.8335 7.0116C3.8335 5.0786 5.4005 3.5116 7.3335 3.5116C9.26649 3.5116 10.8335 5.0786 10.8335 7.0116Z" fill="#0F172A"/>
</svg>
