<svg width="13" height="13" viewBox="0 0 13 13" fill="none" xmlns="http://www.w3.org/2000/svg">
<path fill-rule="evenodd" clip-rule="evenodd" d="M8.29893 9.03769C7.46927 9.6498 6.44363 10.0116 5.3335 10.0116C2.57207 10.0116 0.333496 7.77302 0.333496 5.0116C0.333496 2.25017 2.57207 0.0115967 5.3335 0.0115967C8.09492 0.0115967 10.3335 2.25017 10.3335 5.0116C10.3335 6.12174 9.9717 7.14737 9.35959 7.97703L12.1138 10.7313C12.4067 11.0242 12.4067 11.499 12.1138 11.7919C11.8209 12.0848 11.3461 12.0848 11.0532 11.7919L8.29893 9.03769ZM8.8335 5.0116C8.8335 6.94459 7.26649 8.5116 5.3335 8.5116C3.4005 8.5116 1.8335 6.94459 1.8335 5.0116C1.8335 3.0786 3.4005 1.5116 5.3335 1.5116C7.26649 1.5116 8.8335 3.0786 8.8335 5.0116Z" fill="#0F172A"/>
</svg>
