<svg width="20" height="20" viewBox="0 0 20 20" fill="none" xmlns="http://www.w3.org/2000/svg">
<path fill-rule="evenodd" clip-rule="evenodd" d="M8.5 1.7616C4.77208 1.7616 1.75 4.78367 1.75 8.5116C1.75 12.2395 4.77208 15.2616 8.5 15.2616C10.3642 15.2616 12.0506 14.5069 13.273 13.2846C14.4953 12.0622 15.25 10.3758 15.25 8.5116C15.25 4.78367 12.2279 1.7616 8.5 1.7616ZM0.25 8.5116C0.25 3.95525 3.94365 0.261597 8.5 0.261597C13.0563 0.261597 16.75 3.95525 16.75 8.5116C16.75 10.5194 16.032 12.3607 14.8399 13.7909L19.5303 18.4813C19.8232 18.7742 19.8232 19.249 19.5303 19.5419C19.2374 19.8348 18.7626 19.8348 18.4697 19.5419L13.7793 14.8515C12.3491 16.0436 10.5078 16.7616 8.5 16.7616C3.94365 16.7616 0.25 13.0679 0.25 8.5116Z" fill="#0F172A"/>
</svg>
