<svg width="20" height="22" viewBox="0 0 20 22" fill="none" xmlns="http://www.w3.org/2000/svg">
<path d="M5.21721 9.9071C4.83295 9.21691 4.096 8.75 3.25 8.75C2.00736 8.75 1 9.75736 1 11C1 12.2426 2.00736 13.25 3.25 13.25C4.096 13.25 4.83295 12.7831 5.21721 12.0929M5.21721 9.9071C5.39737 10.2307 5.5 10.6034 5.5 11C5.5 11.3966 5.39737 11.7693 5.21721 12.0929M5.21721 9.9071L14.7828 4.5929M5.21721 12.0929L14.7828 17.4071M14.7828 17.4071C14.6026 17.7307 14.5 18.1034 14.5 18.5C14.5 19.7426 15.5074 20.75 16.75 20.75C17.9926 20.75 19 19.7426 19 18.5C19 17.2574 17.9926 16.25 16.75 16.25C15.904 16.25 15.1671 16.7169 14.7828 17.4071ZM14.7828 4.5929C15.1671 5.28309 15.904 5.75 16.75 5.75C17.9926 5.75 19 4.74264 19 3.5C19 2.25736 17.9926 1.25 16.75 1.25C15.5074 1.25 14.5 2.25736 14.5 3.5C14.5 3.89664 14.6026 4.26931 14.7828 4.5929Z" stroke="#0F172A" stroke-width="1.5" stroke-linecap="round" stroke-linejoin="round"/>
</svg>
