<svg width="22" height="20" viewBox="0 0 22 20" fill="none" xmlns="http://www.w3.org/2000/svg">
<path d="M18.006 1.71177C18.3953 1.57022 18.5961 1.13989 18.4546 0.750618C18.313 0.361343 17.8827 0.160526 17.4934 0.302081L4.99988 4.84518V1.00693C4.99988 0.592714 4.66409 0.256927 4.24988 0.256927H2.74988C2.33566 0.256927 1.99988 0.592714 1.99988 1.00693V5.93609L0.993409 6.30208C0.604133 6.44363 0.403316 6.87396 0.544871 7.26323C0.686425 7.65251 1.11675 7.85333 1.50602 7.71177L18.006 1.71177Z" fill="#0F172A"/>
<path fill-rule="evenodd" clip-rule="evenodd" d="M2.01883 9.12145L16.9999 3.6738V7.0953L21.006 8.55208C21.3953 8.69363 21.5961 9.12396 21.4546 9.51323C21.313 9.90251 20.8827 10.1033 20.4934 9.96177L19.9997 9.78225V18.2569H20.7499C21.1641 18.2569 21.4999 18.5927 21.4999 19.0069C21.4999 19.4211 21.1641 19.7569 20.7499 19.7569H1.24988C0.835664 19.7569 0.499878 19.4211 0.499878 19.0069C0.499878 18.5927 0.835664 18.2569 1.24988 18.2569H1.99988V9.12825L2.01883 9.12145ZM16.9999 18.2569V8.6914L18.4997 9.23679V18.2569H16.9999ZM7.99988 12.2569C7.58566 12.2569 7.24988 12.5927 7.24988 13.0069V17.5069C7.24988 17.9211 7.58566 18.2569 7.99988 18.2569H10.9999C11.4141 18.2569 11.7499 17.9211 11.7499 17.5069V13.0069C11.7499 12.5927 11.4141 12.2569 10.9999 12.2569H7.99988Z" fill="#0F172A"/>
</svg>
