<svg width="22" height="20" viewBox="0 0 22 20" fill="none" xmlns="http://www.w3.org/2000/svg">
<path d="M2.75 1.01611V12.2661C2.75 13.5088 3.75736 14.5161 5 14.5161H7.25M2.75 1.01611H1.25M2.75 1.01611H19.25M19.25 1.01611H20.75M19.25 1.01611V12.2661C19.25 13.5088 18.2426 14.5161 17 14.5161H14.75M7.25 14.5161H14.75M7.25 14.5161L6.25 17.5161M14.75 14.5161L15.75 17.5161M15.75 17.5161L16.25 19.0161M15.75 17.5161H6.25M6.25 17.5161L5.75 19.0161M6.5 10.0161L9.5 7.01611L11.6476 9.16371C12.6542 7.71912 13.9704 6.50634 15.5 5.6215" stroke="#0F172A" stroke-width="1.5" stroke-linecap="round" stroke-linejoin="round"/>
</svg>
