<svg width="22" height="18" viewBox="0 0 22 18" fill="none" xmlns="http://www.w3.org/2000/svg">
<path d="M2.375 16.5046H19.625M2.375 16.5046C1.75368 16.5046 1.25 16.001 1.25 15.3796M2.375 16.5046H9.875C10.4963 16.5046 11 16.001 11 15.3796M1.25 15.3796V2.62964M1.25 15.3796V13.8796C1.25 13.2583 1.75368 12.7546 2.375 12.7546M20.75 15.3796V2.62964M20.75 15.3796C20.75 16.001 20.2463 16.5046 19.625 16.5046M20.75 15.3796V13.8796C20.75 13.2583 20.2463 12.7546 19.625 12.7546M19.625 16.5046H12.125C11.5037 16.5046 11 16.001 11 15.3796M20.75 2.62964C20.75 2.00832 20.2463 1.50464 19.625 1.50464H2.375C1.75368 1.50464 1.25 2.00832 1.25 2.62964M20.75 2.62964V4.12964C20.75 4.75096 20.2463 5.25464 19.625 5.25464M1.25 2.62964V4.12964C1.25 4.75096 1.75368 5.25464 2.375 5.25464M2.375 5.25464H19.625M2.375 5.25464H9.875C10.4963 5.25464 11 5.75832 11 6.37964M2.375 5.25464C1.75368 5.25464 1.25 5.75832 1.25 6.37964V7.87964C1.25 8.50096 1.75368 9.00464 2.375 9.00464M19.625 5.25464H12.125C11.5037 5.25464 11 5.75832 11 6.37964M19.625 5.25464C20.2463 5.25464 20.75 5.75832 20.75 6.37964V7.87964C20.75 8.50096 20.2463 9.00464 19.625 9.00464M2.375 9.00464H9.875M2.375 9.00464C1.75368 9.00464 1.25 9.50832 1.25 10.1296V11.6296C1.25 12.251 1.75368 12.7546 2.375 12.7546M11 7.87964V6.37964M11 7.87964C11 8.50096 10.4963 9.00464 9.875 9.00464M11 7.87964C11 8.50096 11.5037 9.00464 12.125 9.00464M9.875 9.00464C10.4963 9.00464 11 9.50832 11 10.1296M12.125 9.00464H19.625M12.125 9.00464C11.5037 9.00464 11 9.50832 11 10.1296M19.625 9.00464C20.2463 9.00464 20.75 9.50832 20.75 10.1296V11.6296C20.75 12.251 20.2463 12.7546 19.625 12.7546M2.375 12.7546H9.875M11 11.6296V10.1296M11 11.6296C11 12.251 10.4963 12.7546 9.875 12.7546M11 11.6296C11 12.251 11.5037 12.7546 12.125 12.7546M9.875 12.7546C10.4963 12.7546 11 13.2583 11 13.8796M11 15.3796V13.8796M11 13.8796C11 13.2583 11.5037 12.7546 12.125 12.7546M12.125 12.7546H19.625" stroke="#0F172A" stroke-width="1.5" stroke-linecap="round" stroke-linejoin="round"/>
</svg>
