<svg width="22" height="16" viewBox="0 0 22 16" fill="none" xmlns="http://www.w3.org/2000/svg">
<path fill-rule="evenodd" clip-rule="evenodd" d="M0.5 2.37964C0.5 1.3441 1.33947 0.504639 2.375 0.504639H19.625C20.6605 0.504639 21.5 1.34411 21.5 2.37964V5.40599C21.5 5.67371 21.3573 5.92113 21.1255 6.05519C20.4511 6.44536 20 7.17276 20 8.00464C20 8.83651 20.4511 9.56392 21.1255 9.95409C21.3573 10.0881 21.5 10.3356 21.5 10.6033V13.6296C21.5 14.6652 20.6605 15.5046 19.625 15.5046H2.375C1.33947 15.5046 0.5 14.6652 0.5 13.6296V10.6033C0.5 10.3356 0.642712 10.0881 0.874456 9.95409C1.54894 9.56392 2 8.83651 2 8.00464C2 7.17276 1.54894 6.44536 0.874456 6.05519C0.642712 5.92113 0.5 5.67371 0.5 5.40598V2.37964ZM15.5 1.25464C15.9142 1.25464 16.25 1.59043 16.25 2.00464V2.75464C16.25 3.16885 15.9142 3.50464 15.5 3.50464C15.0858 3.50464 14.75 3.16885 14.75 2.75464V2.00464C14.75 1.59043 15.0858 1.25464 15.5 1.25464ZM16.25 5.75464C16.25 5.34043 15.9142 5.00464 15.5 5.00464C15.0858 5.00464 14.75 5.34043 14.75 5.75464V6.50464C14.75 6.91885 15.0858 7.25464 15.5 7.25464C15.9142 7.25464 16.25 6.91885 16.25 6.50464V5.75464ZM15.5 8.75464C15.9142 8.75464 16.25 9.09042 16.25 9.50464V10.2546C16.25 10.6689 15.9142 11.0046 15.5 11.0046C15.0858 11.0046 14.75 10.6689 14.75 10.2546V9.50464C14.75 9.09042 15.0858 8.75464 15.5 8.75464ZM16.25 13.2546C16.25 12.8404 15.9142 12.5046 15.5 12.5046C15.0858 12.5046 14.75 12.8404 14.75 13.2546V14.0046C14.75 14.4189 15.0858 14.7546 15.5 14.7546C15.9142 14.7546 16.25 14.4189 16.25 14.0046V13.2546ZM5 8.00464C5 7.59042 5.33579 7.25464 5.75 7.25464H11C11.4142 7.25464 11.75 7.59042 11.75 8.00464C11.75 8.41885 11.4142 8.75464 11 8.75464H5.75C5.33579 8.75464 5 8.41885 5 8.00464ZM5.75 10.2546C5.33579 10.2546 5 10.5904 5 11.0046C5 11.4189 5.33579 11.7546 5.75 11.7546H8.75C9.16421 11.7546 9.5 11.4189 9.5 11.0046C9.5 10.5904 9.16421 10.2546 8.75 10.2546H5.75Z" fill="#0F172A"/>
</svg>
