<svg width="24" height="24" viewBox="0 0 24 24" fill="none" xmlns="http://www.w3.org/2000/svg">
<path fill-rule="evenodd" clip-rule="evenodd" d="M1.5 6.37964C1.5 5.3441 2.33947 4.50464 3.375 4.50464H20.625C21.6605 4.50464 22.5 5.34411 22.5 6.37964V9.40599C22.5 9.67371 22.3573 9.92113 22.1255 10.0552C21.4511 10.4454 21 11.1728 21 12.0046C21 12.8365 21.4511 13.5639 22.1255 13.9541C22.3573 14.0881 22.5 14.3356 22.5 14.6033V17.6296C22.5 18.6652 21.6605 19.5046 20.625 19.5046H3.375C2.33947 19.5046 1.5 18.6652 1.5 17.6296V14.6033C1.5 14.3356 1.64271 14.0881 1.87446 13.9541C2.54894 13.5639 3 12.8365 3 12.0046C3 11.1728 2.54894 10.4454 1.87446 10.0552C1.64271 9.92113 1.5 9.67371 1.5 9.40598V6.37964ZM16.5 5.25464C16.9142 5.25464 17.25 5.59043 17.25 6.00464V6.75464C17.25 7.16885 16.9142 7.50464 16.5 7.50464C16.0858 7.50464 15.75 7.16885 15.75 6.75464V6.00464C15.75 5.59043 16.0858 5.25464 16.5 5.25464ZM17.25 9.75464C17.25 9.34043 16.9142 9.00464 16.5 9.00464C16.0858 9.00464 15.75 9.34043 15.75 9.75464V10.5046C15.75 10.9189 16.0858 11.2546 16.5 11.2546C16.9142 11.2546 17.25 10.9189 17.25 10.5046V9.75464ZM16.5 12.7546C16.9142 12.7546 17.25 13.0904 17.25 13.5046V14.2546C17.25 14.6689 16.9142 15.0046 16.5 15.0046C16.0858 15.0046 15.75 14.6689 15.75 14.2546V13.5046C15.75 13.0904 16.0858 12.7546 16.5 12.7546ZM17.25 17.2546C17.25 16.8404 16.9142 16.5046 16.5 16.5046C16.0858 16.5046 15.75 16.8404 15.75 17.2546V18.0046C15.75 18.4189 16.0858 18.7546 16.5 18.7546C16.9142 18.7546 17.25 18.4189 17.25 18.0046V17.2546ZM6 12.0046C6 11.5904 6.33579 11.2546 6.75 11.2546H12C12.4142 11.2546 12.75 11.5904 12.75 12.0046C12.75 12.4189 12.4142 12.7546 12 12.7546H6.75C6.33579 12.7546 6 12.4189 6 12.0046ZM6.75 14.2546C6.33579 14.2546 6 14.5904 6 15.0046C6 15.4189 6.33579 15.7546 6.75 15.7546H9.75C10.1642 15.7546 10.5 15.4189 10.5 15.0046C10.5 14.5904 10.1642 14.2546 9.75 14.2546H6.75Z" fill="#0F172A"/>
</svg>
