<svg width="20" height="20" viewBox="0 0 20 20" fill="none" xmlns="http://www.w3.org/2000/svg">
<path d="M16 5.50684V8.50684M16 8.50684V11.5068M16 8.50684H19M16 8.50684H13M10.75 4.38184C10.75 6.2458 9.23896 7.75684 7.375 7.75684C5.51104 7.75684 4 6.2458 4 4.38184C4 2.51787 5.51104 1.00684 7.375 1.00684C9.23896 1.00684 10.75 2.51787 10.75 4.38184ZM1.00092 17.2412C1.00031 17.2048 1 17.1683 1 17.1318C1 13.611 3.85418 10.7568 7.375 10.7568C10.8958 10.7568 13.75 13.611 13.75 17.1318V17.1344C13.75 17.17 13.7497 17.2056 13.7491 17.2412C11.8874 18.3621 9.70647 19.0068 7.375 19.0068C5.04353 19.0068 2.86264 18.3621 1.00092 17.2412Z" stroke="#0F172A" stroke-width="1.5" stroke-linecap="round" stroke-linejoin="round"/>
</svg>
