<svg width="22" height="19" viewBox="0 0 22 19" fill="none" xmlns="http://www.w3.org/2000/svg">
<path fill-rule="evenodd" clip-rule="evenodd" d="M7.25 3.75684C7.25 1.68577 8.92893 0.00683594 11 0.00683594C13.0711 0.00683594 14.75 1.68577 14.75 3.75684C14.75 5.8279 13.0711 7.50684 11 7.50684C8.92893 7.50684 7.25 5.8279 7.25 3.75684Z" fill="#0F172A"/>
<path fill-rule="evenodd" clip-rule="evenodd" d="M14.75 6.75684C14.75 5.09998 16.0931 3.75684 17.75 3.75684C19.4069 3.75684 20.75 5.09998 20.75 6.75684C20.75 8.41369 19.4069 9.75684 17.75 9.75684C16.0931 9.75684 14.75 8.41369 14.75 6.75684Z" fill="#0F172A"/>
<path fill-rule="evenodd" clip-rule="evenodd" d="M1.25 6.75684C1.25 5.09998 2.59315 3.75684 4.25 3.75684C5.90685 3.75684 7.25 5.09998 7.25 6.75684C7.25 8.41369 5.90685 9.75684 4.25 9.75684C2.59315 9.75684 1.25 8.41369 1.25 6.75684Z" fill="#0F172A"/>
<path fill-rule="evenodd" clip-rule="evenodd" d="M5.30986 12.1244C6.50783 10.2512 8.60835 9.00684 11 9.00684C13.3919 9.00684 15.4927 10.2516 16.6906 12.125C17.5187 13.4203 17.877 14.982 17.709 16.5048C17.6827 16.7427 17.5444 16.9539 17.3368 17.073C15.4694 18.1445 13.3051 18.7568 11 18.7568C8.69492 18.7568 6.53059 18.1445 4.66325 17.073C4.45559 16.9539 4.3173 16.7427 4.29103 16.5048C4.12293 14.9817 4.48141 13.4197 5.30986 12.1244Z" fill="#0F172A"/>
<path d="M4.08228 11.2605C4.07024 11.279 4.05827 11.2976 4.04638 11.3162C3.08091 12.8257 2.63908 14.6235 2.77471 16.3958C2.16667 16.3035 1.5767 16.1549 1.01043 15.9555L0.89547 15.915C0.685759 15.8412 0.539227 15.6507 0.521591 15.4291L0.511923 15.3076C0.504017 15.2082 0.5 15.1079 0.5 15.0068C0.5 12.992 2.08905 11.3482 4.08228 11.2605Z" fill="#0F172A"/>
<path d="M19.2256 16.3958C19.3612 14.6238 18.9196 12.8264 17.9545 11.317C17.9424 11.2981 17.9303 11.2793 17.9181 11.2605C19.9111 11.3484 21.5 12.9921 21.5 15.0068C21.5 15.1079 21.496 15.2082 21.4881 15.3076L21.4784 15.4291C21.4608 15.6507 21.3142 15.8412 21.1045 15.915L20.9896 15.9555C20.4234 16.1549 19.8336 16.3034 19.2256 16.3958Z" fill="#0F172A"/>
</svg>
