<svg width="18" height="22" viewBox="0 0 18 22" fill="none" xmlns="http://www.w3.org/2000/svg">
<path fill-rule="evenodd" clip-rule="evenodd" d="M4.50009 5.00684C4.50009 2.52155 6.51481 0.506836 9.00009 0.506836C11.4854 0.506836 13.5001 2.52155 13.5001 5.00684C13.5001 7.49212 11.4854 9.50684 9.00009 9.50684C6.51481 9.50684 4.50009 7.49212 4.50009 5.00684Z" fill="#0F172A"/>
<path fill-rule="evenodd" clip-rule="evenodd" d="M0.751333 19.1122C0.828673 14.6224 4.49207 11.0068 9.00009 11.0068C13.5082 11.0068 17.1717 14.6226 17.2488 19.1125C17.254 19.4103 17.0824 19.6828 16.8117 19.807C14.4328 20.8986 11.7866 21.5068 9.00041 21.5068C6.21395 21.5068 3.56752 20.8985 1.18841 19.8067C0.917738 19.6825 0.746203 19.4099 0.751333 19.1122Z" fill="#0F172A"/>
</svg>
