<svg width="22" height="20" viewBox="0 0 22 20" fill="none" xmlns="http://www.w3.org/2000/svg">
<path d="M2.9799 6.22501C2.05679 7.31626 1.35239 8.59845 0.934326 10.0039C2.22562 14.3404 6.24308 17.5024 10.9991 17.5024C11.9916 17.5024 12.952 17.3647 13.8622 17.1073M5.2276 4.23007C6.88385 3.13802 8.86768 2.50244 10.9999 2.50244C15.7559 2.50244 19.7734 5.66449 21.0647 10.001C20.3528 12.3943 18.8105 14.4301 16.772 15.7744M5.2276 4.23007L1.99997 1.00244M5.2276 4.23007L8.87865 7.88112M16.772 15.7744L20 19.0024M16.772 15.7744L13.1213 12.1238M13.1213 12.1238C13.6642 11.5809 14 10.8309 14 10.0024C14 8.34559 12.6568 7.00244 11 7.00244C10.1715 7.00244 9.42154 7.33823 8.87865 7.88112M13.1213 12.1238L8.87865 7.88112" stroke="#0F172A" stroke-width="1.5" stroke-linecap="round" stroke-linejoin="round"/>
</svg>
