<svg width="22" height="20" viewBox="0 0 22 20" fill="none" xmlns="http://www.w3.org/2000/svg">
<path d="M2.53033 0.472111C2.23744 0.179218 1.76256 0.179218 1.46967 0.472111C1.17678 0.765005 1.17678 1.23988 1.46967 1.53277L19.4697 19.5328C19.7626 19.8257 20.2374 19.8257 20.5303 19.5328C20.8232 19.2399 20.8232 18.765 20.5303 18.4721L2.53033 0.472111Z" fill="#0F172A"/>
<path d="M21.6759 10.5557C21.1319 12.1911 20.2226 13.6599 19.0447 14.8652L15.9462 11.7667C16.1429 11.2153 16.25 10.6214 16.25 10.0024C16.25 7.10295 13.8995 4.75244 11 4.75244C10.3811 4.75244 9.78715 4.85955 9.23577 5.05623L6.75898 2.57944C8.06783 2.04625 9.49977 1.75244 11.0005 1.75244C15.9708 1.75244 20.1864 4.97516 21.6755 9.4429C21.7959 9.80396 21.796 10.1946 21.6759 10.5557Z" fill="#0F172A"/>
<path d="M14.75 10.0024C14.75 10.1826 14.7373 10.3598 14.7127 10.5332L10.4692 6.28971C10.6426 6.26515 10.8198 6.25244 11 6.25244C13.0711 6.25244 14.75 7.93137 14.75 10.0024Z" fill="#0F172A"/>
<path d="M11.5308 13.7152L7.28727 9.47169C7.2627 9.64508 7.25 9.82228 7.25 10.0024C7.25 12.0735 8.92893 13.7524 11 13.7524C11.1802 13.7524 11.3574 13.7397 11.5308 13.7152Z" fill="#0F172A"/>
<path d="M5.75 10.0024C5.75 9.38351 5.8571 8.78959 6.05379 8.23821L2.95492 5.13935C1.77687 6.34467 0.867472 7.81358 0.323411 9.44914C0.203283 9.81027 0.203397 10.2009 0.323739 10.562C1.81284 15.0297 6.02847 18.2524 10.9988 18.2524C12.4997 18.2524 13.9318 17.9586 15.2408 17.4252L12.7642 14.9487C12.2129 15.1453 11.6189 15.2524 11 15.2524C8.1005 15.2524 5.75 12.9019 5.75 10.0024Z" fill="#0F172A"/>
</svg>
