<svg width="22" height="18" viewBox="0 0 22 18" fill="none" xmlns="http://www.w3.org/2000/svg">
<path d="M11 12.0024C12.6569 12.0024 14 10.6593 14 9.00244C14 7.34559 12.6569 6.00244 11 6.00244C9.34315 6.00244 8 7.34559 8 9.00244C8 10.6593 9.34315 12.0024 11 12.0024Z" fill="#0F172A"/>
<path fill-rule="evenodd" clip-rule="evenodd" d="M0.323411 8.44914C1.81066 3.97815 6.02791 0.752441 11.0005 0.752441C15.9708 0.752441 20.1864 3.97516 21.6755 8.4429C21.7959 8.80396 21.796 9.19462 21.6759 9.55575C20.1886 14.0267 15.9714 17.2524 10.9988 17.2524C6.02847 17.2524 1.81284 14.0297 0.323739 9.56199C0.203397 9.20093 0.203283 8.81027 0.323411 8.44914ZM16.25 9.00244C16.25 11.9019 13.8995 14.2524 11 14.2524C8.1005 14.2524 5.75 11.9019 5.75 9.00244C5.75 6.10295 8.1005 3.75244 11 3.75244C13.8995 3.75244 16.25 6.10295 16.25 9.00244Z" fill="#0F172A"/>
</svg>
